<?xml version="1.0" encoding="utf-8"?>
<!-- Generator: Adobe Illustrator 27.8.1, SVG Export Plug-In . SVG Version: 6.00 Build 0)  -->
<svg version="1.1" id="Layer_1" xmlns="http://www.w3.org/2000/svg" xmlns:xlink="http://www.w3.org/1999/xlink" x="0px" y="0px"
	 viewBox="0 0 1346.6 137.4" style="enable-background:new 0 0 1346.6 137.4;" xml:space="preserve">
<g>
	<path d="M26,137.4H0l47.4-120C52.4,4.8,61.6,0,75.8,0c14,0,23.2,4.8,28,17.4l45.6,120h-26.2l-41-108.6c-1.2-3.2-3.4-4.6-6.6-4.6
		c-3.2,0-5.4,1.4-6.8,4.6L26,137.4z"/>
	<path d="M242.2,2.4c30.4,0,43.4,18.8,43.4,40.4c0,16.8-8,34.8-28.6,40.6l31.4,54h-26.2l-30.8-52.2h-35.2c-2.2,0-3.4,1-3.4,3.4v48.8
		h-23.6V84c0-15.2,6.4-21.4,21.2-21.4H243c13.4,0,18.8-9.2,18.8-18.8c0-9.6-5.8-17.8-18.8-17.8h-74V2.4H242.2z"/>
	<path d="M385,2.4c30.4,0,43.4,18.8,43.4,40.4c0,16.8-8,34.8-28.6,40.6l31.4,54H405l-30.8-52.2H339c-2.2,0-3.4,1-3.4,3.4v48.8H312
		V84c0-15.2,6.4-21.4,21.2-21.4h52.6c13.4,0,18.8-9.2,18.8-18.8c0-9.6-5.8-17.8-18.8-17.8h-74V2.4H385z"/>
	<path d="M612.6,2.4V26h-69.2c-12.2,0-17.6,6.6-17.6,16c0,8.2,4.2,16,20,16h31.6c36.8,0,45.4,20.4,45.4,39.8
		c0,22.8-12.2,39.6-43,39.6h-75.2v-23.6h76c12.8,0,18.6-7,18.6-16.8c0-8.8-4.6-16.8-21.2-16.8h-31.4c-36,0-44.4-20.2-44.4-39
		c0-22.4,12-38.8,42-38.8H612.6z"/>
	<path d="M756.4,2.4V26h-52.2c-26,0-37.4,13-37.4,44c0,30.8,11.2,43.8,37.4,43.8h52.2v23.6h-52.2c-39.4,0-61-22.2-61-67.4
		c0-45.4,21.8-67.6,61-67.6H756.4z"/>
	<path d="M857.4,2.4c30.4,0,43.4,18.8,43.4,40.4c0,16.8-8,34.8-28.6,40.6l31.4,54h-26.2l-30.8-52.2h-35.2c-2.2,0-3.4,1-3.4,3.4v48.8
		h-23.6V84c0-15.2,6.4-21.4,21.2-21.4h52.6c13.4,0,18.8-9.2,18.8-18.8c0-9.6-5.8-17.8-18.8-17.8h-74V2.4H857.4z"/>
	<path d="M951,2.4v135h-23.6V2.4H951z"/>
	<path d="M1052.4,2.4c30.4,0,43.4,18.8,43.4,40.4c0,20.4-11.8,42.4-43.4,42.4h-42c-2.2,0-3.4,1-3.4,3.4v48.8h-23.6V84
		c0-15.2,6.4-21.4,21.2-21.4h48.6c13.4,0,18.8-9.2,18.8-18.6c0-9.8-5.8-18-18.6-18h-70.2V2.4H1052.4z"/>
	<path d="M1211.4,2.4V26H1172v111.4h-23.8V26h-39.4V2.4H1211.4z"/>
	<path d="M1336.4,2.4V26h-69.2c-12.2,0-17.6,6.6-17.6,16c0,8.2,4.2,16,20,16h31.6c36.8,0,45.4,20.4,45.4,39.8
		c0,22.8-12.2,39.6-43,39.6h-75.2v-23.6h76c12.8,0,18.6-7,18.6-16.8c0-8.8-4.6-16.8-21.2-16.8h-31.4c-36,0-44.4-20.2-44.4-39
		c0-22.4,12-38.8,42-38.8H1336.4z"/>
</g>
</svg>
