<?xml version="1.0" encoding="UTF-8"?>
<svg id="a" data-name="Layer 1" xmlns="http://www.w3.org/2000/svg" viewBox="0 0 647.09 104.85">
  <path d="m18.9,103.05H0L31.35,18.75C35.25,7.2,41.7,0,55.2,0c15,0,22.5,8.85,22.5,22.05v59.85c0,3.45,2.1,5.7,5.1,5.7,2.7,0,4.8-1.65,5.7-4.2l24.6-64.65c3.9-11.55,10.35-18.75,23.85-18.75,15,0,22.5,8.85,22.5,22.05v81h-17.85V22.95c0-3.6-2.1-5.85-5.1-5.85-2.55,0-4.65,1.8-5.55,4.35l-24.6,64.65c-3.9,11.55-10.5,18.75-24,18.75-14.85,0-22.35-8.85-22.35-22.2V22.95c0-3.6-2.25-5.85-5.25-5.85-2.7,0-4.5,1.8-5.55,4.35l-30.3,81.6Z"/>
  <rect x="183.9" y="1.8" width="17.7" height="101.25"/>
  <path d="m315.29,1.8v17.7h-55.5c-9.75,0-14.1,6.15-14.1,13.35s4.05,14.1,14.1,14.1h39.45c11.1,0,15.9,4.65,15.9,16.05v40.05h-17.7v-36.6c0-1.8-.9-2.55-2.55-2.55h-26.4s-23.1,39.15-23.1,39.15h-19.65s23.55-40.5,23.55-40.5c-15.45-4.35-21.45-17.85-21.45-30.45,0-16.2,9.75-30.3,32.55-30.3h54.9Z"/>
  <path d="m387.74,1.8c22.8,0,32.55,14.1,32.55,30.3,0,12.6-6,26.1-21.45,30.45l23.55,40.5h-19.65l-23.1-39.15h-26.4c-1.65,0-2.55.75-2.55,2.55v36.6h-17.7v-40.05c0-11.4,4.8-16.05,15.9-16.05h39.45c10.05,0,14.1-6.9,14.1-14.1s-4.35-13.35-14.1-13.35h-55.5V1.8h54.9Z"/>
  <path d="m450.29,103.05h-19.5l35.55-90c3.75-9.45,10.65-13.05,21.3-13.05s17.4,3.6,21,13.05l34.2,90h-19.65l-30.75-81.45c-.9-2.4-2.55-3.45-4.95-3.45s-4.05,1.05-5.1,3.45l-32.1,81.45Z"/>
  <path d="m612.44,1.8c22.8,0,32.55,14.1,32.55,30.3,0,12.6-6,26.1-21.45,30.45l23.55,40.5h-19.65l-23.1-39.15h-26.4c-1.65,0-2.55.75-2.55,2.55v36.6h-17.7v-40.05c0-11.4,4.8-16.05,15.9-16.05h39.45c10.05,0,14.1-6.9,14.1-14.1s-4.35-13.35-14.1-13.35h-55.5V1.8h54.9Z"/>
</svg>