<?xml version="1.0" encoding="utf-8"?>
<!-- Generator: Adobe Illustrator 27.8.1, SVG Export Plug-In . SVG Version: 6.00 Build 0)  -->
<svg version="1.1" id="Layer_1" xmlns="http://www.w3.org/2000/svg" xmlns:xlink="http://www.w3.org/1999/xlink" x="0px" y="0px"
	 viewBox="0 0 844.4 377.4" style="enable-background:new 0 0 844.4 377.4;" xml:space="preserve">
<g>
	<path d="M230.6,137.4h-26l47.4-120C257,4.8,266.2,0,280.4,0c14,0,23.2,4.8,28,17.4l45.6,120h-26.2l-41-108.6
		c-1.2-3.2-3.4-4.6-6.6-4.6c-3.2,0-5.4,1.4-6.8,4.6L230.6,137.4z"/>
	<path d="M446.8,2.4c30.4,0,43.4,18.8,43.4,40.4c0,16.8-8,34.8-28.6,40.6l31.4,54h-26.2L436,85.2h-35.2c-2.2,0-3.4,1-3.4,3.4v48.8
		h-23.6V84c0-15.2,6.4-21.4,21.2-21.4h52.6c13.4,0,18.8-9.2,18.8-18.8c0-9.6-5.8-17.8-18.8-17.8h-74V2.4H446.8z"/>
	<path d="M589.6,2.4C620,2.4,633,21.2,633,42.8c0,16.8-8,34.8-28.6,40.6l31.4,54h-26.2l-30.8-52.2h-35.2c-2.2,0-3.4,1-3.4,3.4v48.8
		h-23.6V84c0-15.2,6.4-21.4,21.2-21.4h52.6c13.4,0,18.8-9.2,18.8-18.8c0-9.6-5.8-17.8-18.8-17.8h-74V2.4H589.6z"/>
	<path d="M110.4,242.4V266H41.2c-12.2,0-17.6,6.6-17.6,16c0,8.2,4.2,16,20,16h31.6c36.8,0,45.4,20.4,45.4,39.8
		c0,22.8-12.2,39.6-43,39.6H2.4v-23.6h76c12.8,0,18.6-7,18.6-16.8c0-8.8-4.6-16.8-21.2-16.8H44.4c-36,0-44.4-20.2-44.4-39
		c0-22.4,12-38.8,42-38.8H110.4z"/>
	<path d="M254.2,242.4V266H202c-26,0-37.4,13-37.4,44c0,30.8,11.2,43.8,37.4,43.8h52.2v23.6H202c-39.4,0-61-22.2-61-67.4
		c0-45.4,21.8-67.6,61-67.6H254.2z"/>
	<path d="M355.2,242.4c30.4,0,43.4,18.8,43.4,40.4c0,16.8-8,34.8-28.6,40.6l31.4,54h-26.2l-30.8-52.2h-35.2c-2.2,0-3.4,1-3.4,3.4
		v48.8h-23.6V324c0-15.2,6.4-21.4,21.2-21.4H356c13.4,0,18.8-9.2,18.8-18.8c0-9.6-5.8-17.8-18.8-17.8h-74v-23.6H355.2z"/>
	<path d="M448.8,242.4v135h-23.6v-135H448.8z"/>
	<path d="M550.2,242.4c30.4,0,43.4,18.8,43.4,40.4c0,20.4-11.8,42.4-43.4,42.4h-42c-2.2,0-3.4,1-3.4,3.4v48.8h-23.6V324
		c0-15.2,6.4-21.4,21.2-21.4H551c13.4,0,18.8-9.2,18.8-18.6c0-9.8-5.8-18-18.6-18H481v-23.6H550.2z"/>
	<path d="M709.2,242.4V266h-39.4v111.4H646V266h-39.4v-23.6H709.2z"/>
	<path d="M834.2,242.4V266H765c-12.2,0-17.6,6.6-17.6,16c0,8.2,4.2,16,20,16H799c36.8,0,45.4,20.4,45.4,39.8
		c0,22.8-12.2,39.6-43,39.6h-75.2v-23.6h76c12.8,0,18.6-7,18.6-16.8c0-8.8-4.6-16.8-21.2-16.8h-31.4c-36,0-44.4-20.2-44.4-39
		c0-22.4,12-38.8,42-38.8H834.2z"/>
</g>
</svg>
